<?xml version="1.0" standalone="no"?>
<!DOCTYPE svg PUBLIC "-//W3C//DTD SVG 20010904//EN"
 "http://www.w3.org/TR/2001/REC-SVG-20010904/DTD/svg10.dtd">
<svg version="1.0" xmlns="http://www.w3.org/2000/svg"
 width="500.000000pt" height="500.000000pt" viewBox="0 0 500.000000 500.000000"
 preserveAspectRatio="xMidYMid meet">
<metadata>
Created by potrace 1.11, written by Peter Selinger 2001-2013
</metadata>
<g transform="translate(0.000000,500.000000) scale(0.100000,-0.100000)"
fill="#000000" stroke="none">
<path d="M0 2500 l0 -2500 2500 0 2500 0 0 2500 0 2500 -2500 0 -2500 0 0
-2500z m1205 620 c22 0 49 -6 58 -12 23 -18 35 -138 42 -428 6 -241 19 -365
42 -388 6 -7 10 -18 7 -25 -4 -11 73 -98 79 -89 1 2 16 -2 32 -9 47 -18 120
-23 171 -10 50 13 60 19 113 71 61 60 72 114 82 414 8 232 24 454 34 465 2 2
65 8 139 13 146 11 408 0 426 -18 13 -13 29 -188 30 -320 0 -127 17 -297 35
-355 7 -24 14 -38 14 -31 1 6 5 12 11 12 5 0 21 12 35 26 l26 26 252 -5 c226
-4 322 -13 307 -29 -3 -3 1 -12 9 -21 7 -10 10 -17 5 -17 -5 0 -4 -4 2 -8 6
-4 16 -29 23 -56 39 -158 239 -234 390 -149 40 22 55 38 79 88 45 91 42 61 57
515 3 96 11 210 16 252 l11 77 47 8 c59 9 411 9 473 -1 l47 -7 8 -67 c4 -37 8
-222 8 -412 0 -325 -1 -350 -22 -425 -12 -45 -29 -94 -37 -110 -9 -17 -16 -36
-16 -42 0 -7 -4 -13 -10 -13 -5 0 -10 -7 -10 -15 0 -8 -3 -15 -7 -15 -5 0 -19
-17 -33 -38 -14 -20 -32 -42 -40 -48 -8 -7 -28 -24 -45 -38 -16 -14 -34 -26
-38 -26 -5 0 -5 -5 -1 -12 5 -8 2 -9 -9 -5 -10 3 -17 2 -17 -3 0 -6 -7 -10
-15 -10 -8 0 -15 -4 -15 -9 0 -4 -21 -16 -47 -26 -27 -10 -61 -23 -78 -30 -87
-37 -198 -49 -430 -50 -299 0 -420 21 -581 104 -68 34 -191 142 -214 187 -8
16 -21 36 -29 46 -8 10 -34 55 -58 100 -24 46 -48 83 -53 82 -26 -3 -30 -5
-30 -19 0 -8 -3 -15 -8 -15 -4 0 -18 -24 -32 -52 -24 -52 -61 -114 -90 -152
-41 -53 -104 -116 -116 -116 -8 0 -14 -4 -14 -10 0 -5 -7 -10 -17 -10 -9 0
-13 -3 -10 -7 16 -15 -192 -99 -297 -119 -49 -10 -162 -18 -286 -21 -176 -4
-223 -2 -329 16 -68 11 -134 27 -147 36 -13 8 -30 15 -38 15 -32 0 -196 94
-196 112 0 5 -4 6 -10 3 -5 -3 -10 -2 -10 2 0 5 -12 22 -27 40 -137 153 -173
289 -173 646 0 230 16 507 31 522 14 14 189 24 333 19 66 -2 138 -4 161 -4z"/>
</g>
</svg>
